# xmcd CD database file
#
# Track frame offsets:
#	150
#	57434
#	94875
#	109683
#	122830
#	166689
#	210797
#	221561
#	267480
#
# Disc length: 4181 seconds
#
# Revision: 0
# Processed by: cddbd v1.5.2PL0 Copyright (c) Steve Scherf et al.
# Submitted via: CDex 1.51
#
DISCID=7b105309
DTITLE=Strauss, Johann (Sohn) - The Great Composers LIV
DYEAR=2008
DGENRE=Klassik
TTITLE0=Geschichten aus dem Wienerwald Op. 325
TTITLE1=Die Fledermaus - Ouverture
TTITLE2=Unter Donner und Blitz, fast Polka, Op. 316
TTITLE3=Vergnügungszug, Polka schnell, Op. 281
TTITLE4=Rosen aus dem Süden, Walzer, Op. 388
TTITLE5=Liebeslieder, Op. 114
TTITLE6=Persischer Marsch, Op. 289
TTITLE7=Seid umschlungen, Millionen, Walzer, Op. 443
TTITLE8=Wiener Blut, Walzer, Op. 354
EXTD=YEAR: 2008
EXTT0=
EXTT1=
EXTT2=
EXTT3=
EXTT4=
EXTT5=
EXTT6=
EXTT7=
EXTT8=
PLAYORDER=
